# xmcd CD database file
#
# Track frame offsets:
#	182
#	11527
#	32610
#	53002
#	73640
#	100062
#	114797
#	135900
#	149330
#	165127
#	185405
#	205165
#	227740
#	247300
#	267412
#
# Disc length: 3772 seconds
#
# Revision: 0
# Processed by: cddbd v1.4PL0 Copyright (c) Steve Scherf et al.
# Submitted via: CDex 1.51
#
DISCID=c20eba0f
DTITLE=Compile - Alcatel
DYEAR=1900
DGENRE=COMPILATIONS
TTITLE0=Brigitte Bardot - Harley Davidson
TTITLE1=The Bangles - Manic monday
TTITLE2=Cock Robin - When your heart is weak
TTITLE3=Terence Trent d'Arby - Sign your name
TTITLE4=Stéphane Grappelli - Baubles, bangles and beads
TTITLE5=Teddy Wilson and his trio - The man I love
TTITLE6=Earth, Wind and Fire - Fantasy
TTITLE7=Dave Brubeck - Take five
TTITLE8=The Glenn Miller Orchestra - In the mood
TTITLE9=Don Johnson - Can't take your memory
TTITLE10=Début de Soirée - Jardins d'enfants
TTITLE11=Santana - Europa ( Earth's cry heaven's smile )
TTITLE12=Duke Ellington and Count Basie :Take the "A" train
TTITLE13=Kassav' - Sye bwa
TTITLE14=Dana Dawson - Ready to follow you
EXTD=
EXTT0=
EXTT1=
EXTT2=
EXTT3=
EXTT4=
EXTT5=
EXTT6=
EXTT7=
EXTT8=
EXTT9=
EXTT10=
EXTT11=
EXTT12=
EXTT13=
EXTT14=
PLAYORDER=
